<svg xmlns="http://www.w3.org/2000/svg" xmlns:xlink="http://www.w3.org/1999/xlink" width="32" height="32" viewBox="0 0 32 32"><defs><style>.a{fill:none;}.b{clip-path:url(#a);}.c,.d{fill:#fff;}.c{stroke:#fff;stroke-width:0.5px;}.d{opacity:0;}</style><clipPath id="a"><rect class="a" width="32" height="32"/></clipPath></defs><g class="b"><g transform="translate(3.858 4)"><g transform="translate(0.142 0)"><g transform="translate(0 0)"><path class="c" d="M20.157,1.044A8.071,8.071,0,0,0,9.275,3.892L6.088,9.283.142,13.118l6.209,3.5h0a3.841,3.841,0,0,0,1.458,5.314A4.036,4.036,0,0,0,13.25,20.51l6.209,3.5.427-6.947,3.186-5.391A7.683,7.683,0,0,0,20.157,1.044ZM8.606,20.586A2.306,2.306,0,0,1,7.731,17.4l4.14,2.334A2.421,2.421,0,0,1,8.606,20.586Zm13.088-9.691-3.186,5.391-.32,5.21L3.008,12.937l4.46-2.876L10.654,4.67a6.456,6.456,0,0,1,8.706-2.278A6.145,6.145,0,0,1,21.693,10.895Z" transform="translate(-0.142 0)"/></g></g></g><rect class="d" width="32" height="32"/></g></svg>