<svg xmlns="http://www.w3.org/2000/svg" xmlns:xlink="http://www.w3.org/1999/xlink" width="122.805" height="39.982" viewBox="0 0 122.805 39.982"><defs><style>.a{fill:none;}.b{clip-path:url(#a);}.c,.k,.m{fill:#fff;}.c{font-size:20px;letter-spacing:-0.035em;}.c,.m{font-family:SegoeUI-Semibold, Segoe UI;font-weight:600;}.d{clip-path:url(#b);}.e{fill:#195076;}.f{fill:#186ba5;}.g{fill:#1d7ec3;}.h{fill:#3da6e0;}.i{fill:#005eab;}.j{opacity:0.298;}.l{fill:#2794e7;}.m{font-size:15px;}.n,.o{stroke:none;}.o{fill:rgba(0,0,0,0.1);}</style><clipPath id="a"><rect class="a" width="122.805" height="39.982"/></clipPath><clipPath id="b"><rect class="a" width="40" height="39.982"/></clipPath></defs><g class="b"><g transform="translate(-3072.665 1805)"><g transform="translate(3122.47 -1798)"><text class="c" transform="translate(0 22)"><tspan x="0" y="0">Sherlock</tspan></text></g></g><g class="d"><g transform="translate(11.34 2.838)"><path class="e" d="M2,0H26.66a2,2,0,0,1,2,2V31.354a2,2,0,0,1-2,2H2a2,2,0,0,1-2-2V2A2,2,0,0,1,2,0Z"/><rect class="f" width="28.66" height="8.649" transform="translate(0 16.58)"/><rect class="g" width="28.66" height="8.31" transform="translate(0 8.29)"/><path class="h" d="M385.589,347.38h25.268a1.7,1.7,0,0,1,1.7,1.7v6.614h-28.66v-6.614A1.7,1.7,0,0,1,385.589,347.38Z" transform="translate(-383.893 -347.38)"/></g><g transform="translate(8.56)"><rect class="i" width="26.817" height="39.982" rx="3"/><g class="j" transform="translate(0 2.838)"><rect class="i" width="26.817" height="33.35" rx="4.92"/></g></g><g class="k" transform="translate(-372.216 -345.351)"><path class="n" d="M381.853,380.018V367.581a3.783,3.783,0,0,0,.84-1.281,2.841,2.841,0,0,0,.125-1.517,2.2,2.2,0,0,0-.348-.929.854.854,0,0,0-.617-.364v-10.98a9.65,9.65,0,0,1,.992-1.015c.519-.461,1-.979,1.47-1.479.3-.322.611-.654.928-.969a1.343,1.343,0,0,1,.976-.432c.358.024,7.517.491,8.945.664a5.1,5.1,0,0,1,1.3.328,4.621,4.621,0,0,1,1.121.643,4.513,4.513,0,0,1,.9.937,4.895,4.895,0,0,1,.624,1.207,9.632,9.632,0,0,0,.778,1.689,7.345,7.345,0,0,0,1.053,1.386,6.8,6.8,0,0,0,1.358,1.073,7.878,7.878,0,0,0,1.691.752,3.678,3.678,0,0,1,.807.416c.087.054.177.11.266.163a.851.851,0,0,1,0,.8,24.63,24.63,0,0,1-2.476-.585h0a22.9,22.9,0,0,0-2.284-.543c-.036.295-.08.587-.122.87v0a12.716,12.716,0,0,0-.193,2.019,2.564,2.564,0,0,0,.645,1.39c.377.46.8.9,1.208,1.316l0,0c.29.3.589.607.87.922.325.365.446.632.381.842s-.32.363-.8.481a1.331,1.331,0,0,1-.322.031c-.078,0-.159,0-.237-.006h0c-.08,0-.163-.007-.244-.007a.965.965,0,0,0-.557.128.761.761,0,0,0-.272.623,1.753,1.753,0,0,0,1.438,1.872,2.32,2.32,0,0,1,1.179.736,2.738,2.738,0,0,1,.556,1.271c.078.421.151.85.222,1.266v0c.137.808.279,1.644.468,2.455a10.78,10.78,0,0,0,.52,1.522c.088.221.179.45.262.677l.181-.031.021,0,.31-.053c.02-.184.044-.372.068-.553a10.211,10.211,0,0,0,.11-1.217,2.134,2.134,0,0,1,.286-1.229,1.051,1.051,0,0,1,.919-.392,3.434,3.434,0,0,1,.708.086,8.987,8.987,0,0,1,.947.248c1.061.349,1.628.6,1.79,1.018s-.087.979-.632,1.944c-.163.288-.305.592-.445.889-.066.14-.133.284-.2.425a5.894,5.894,0,0,1-.914,1.451,2.085,2.085,0,0,1-1.516.691l-.128,0a3.688,3.688,0,0,1-1.836-.461,3.065,3.065,0,0,1-1.264-1.382,9.971,9.971,0,0,1-.812-3.272c-.042-.715-.04-4.648-.872-5.21a1.417,1.417,0,0,0-.748-.293c-.367,0-.6.3-.706.891a11.3,11.3,0,0,0-.119,1.3c-.016.293-.031.595-.063.89a1.524,1.524,0,0,1-1.565,1.547c-.047,0-.094,0-.142,0a18.434,18.434,0,0,1-1.95-.267c-.5-.087-1.022-.177-1.537-.231a1.526,1.526,0,0,0-.158-.008,3.684,3.684,0,0,0-.784.119h0c-.141.031-.288.064-.43.087q.011.164.023.329l0,.033,0,.049.795.3.112.041.043.016c-.116.3-.265.6-.41.884a3.371,3.371,0,0,0-.555,1.837,3.485,3.485,0,0,0,.995,1.591,8.65,8.65,0,0,1,.641.779c.341.491.656.988,1.02,1.565.174.275.353.558.55.865C396.2,381.3,384.651,381.885,381.853,380.018Z"/><path class="o" d="M 391.9876403808594 381.3696594238281 C 394.5704650878906 381.3696594238281 396.6909484863281 381.2532348632812 397.0284118652344 381.220947265625 C 396.8316040039062 380.9147033691406 396.6523742675781 380.6309204101562 396.4786682128906 380.3563537597656 C 396.1143493652344 379.7793273925781 395.7996520996094 379.2821655273438 395.458740234375 378.7911682128906 C 395.2605895996094 378.5193786621094 395.0465393066406 378.2592468261719 394.8179931640625 378.0122680664062 C 394.3706359863281 377.5095520019531 393.9080505371094 376.9893188476562 393.8232727050781 376.4212951660156 C 393.7391662597656 375.8559875488281 394.0493774414062 375.2387390136719 394.3778686523438 374.5846862792969 C 394.5226135253906 374.2960205078125 394.6722106933594 373.9980163574219 394.7880249023438 373.7007446289062 L 394.7452697753906 373.6846008300781 L 394.6336059570312 373.643310546875 L 393.8388061523438 373.3470458984375 L 393.8349914550781 373.2982177734375 L 393.8325805664062 373.2655334472656 C 393.8246459960938 373.15576171875 393.8170776367188 373.0463562011719 393.8094787597656 372.9369506835938 C 393.951171875 372.9142150878906 394.0979919433594 372.8815307617188 394.2392883300781 372.8502197265625 L 394.2413940429688 372.8502197265625 C 394.4974365234375 372.782470703125 394.7604675292969 372.7428894042969 395.025146484375 372.7315063476562 C 395.077880859375 372.7315063476562 395.130615234375 372.7342834472656 395.183349609375 372.7397766113281 C 395.6979675292969 372.7941284179688 396.2174072265625 372.8839416503906 396.7199401855469 372.9710083007812 C 397.3648376464844 373.0945129394531 398.0159301757812 373.1836242675781 398.6701049804688 373.2376403808594 C 398.718017578125 373.24072265625 398.7659301757812 373.242431640625 398.8125 373.242431640625 C 399.7017211914062 373.2421264648438 400.2721862792969 372.6778259277344 400.3772888183594 371.6958923339844 C 400.4086608886719 371.4003295898438 400.4244995117188 371.0986022949219 400.4400329589844 370.8057861328125 C 400.4545288085938 370.3712463378906 400.494140625 369.9377136230469 400.55859375 369.5076599121094 C 400.6599426269531 368.91650390625 400.8970642089844 368.6165161132812 401.2644958496094 368.6165161132812 C 401.5368041992188 368.6399230957031 401.7963256835938 368.7417602539062 402.0120849609375 368.9093322753906 C 402.8441467285156 369.4714965820312 402.8428039550781 373.4038391113281 402.8844909667969 374.1191711425781 C 403.0164794921875 375.4410400390625 403.2822570800781 376.5107116699219 403.6965026855469 377.3912048339844 C 403.9633178710938 377.9719543457031 404.4051818847656 378.4553833007812 404.9608154296875 378.7729187011719 C 405.5075378417969 379.0756225585938 406.1222534179688 379.2343444824219 406.7470703125 379.2343444824219 C 406.7635498046875 379.2343444824219 406.7800903320312 379.2342224121094 406.7965698242188 379.2340087890625 C 406.8393249511719 379.2340087890625 406.8823852539062 379.2332763671875 406.9247741699219 379.2319641113281 C 407.504150390625 379.2222900390625 408.0535888671875 378.9718322753906 408.440673828125 378.5410461425781 C 408.8146362304688 378.1044311523438 409.1224365234375 377.6158447265625 409.3547668457031 377.0904846191406 C 409.4236755371094 376.9497680664062 409.4915771484375 376.8052062988281 409.5570983886719 376.6655578613281 C 409.6966857910156 376.3693237304688 409.8390197753906 376.0647888183594 410.001708984375 375.7768249511719 C 410.5469970703125 374.8120727539062 410.7958679199219 374.2485046386719 410.6338500976562 373.8328857421875 C 410.4721984863281 373.4169006347656 409.9048461914062 373.1640014648438 408.8442687988281 372.8151550292969 C 408.5334167480469 372.7153625488281 408.2169799804688 372.6324462890625 407.8971252441406 372.5670776367188 C 407.664794921875 372.5137634277344 407.4273071289062 372.4848327636719 407.1891479492188 372.4806823730469 C 406.762451171875 372.4806823730469 406.4622497558594 372.6090393066406 406.2705993652344 372.8722534179688 C 406.0830688476562 373.1299743652344 405.9893493652344 373.5318298339844 405.9841613769531 374.1012573242188 C 405.9717407226562 374.5086059570312 405.9348754882812 374.915283203125 405.8738708496094 375.3182067871094 C 405.85009765625 375.4985046386719 405.8256225585938 375.6863403320312 405.8059387207031 375.8707885742188 L 405.49609375 375.9241027832031 L 405.4754333496094 375.9275207519531 L 405.2940979003906 375.9588317871094 C 405.2113952636719 375.7314147949219 405.1204223632812 375.5026245117188 405.0321655273438 375.2817077636719 C 404.8212280273438 374.7880249023438 404.6471557617188 374.2794494628906 404.5120239257812 373.7599487304688 C 404.3231811523438 372.948974609375 404.18115234375 372.1132202148438 404.0439758300781 371.3053588867188 L 404.0439758300781 371.3026123046875 C 403.9733276367188 370.8869934082031 403.9002380371094 370.4575805664062 403.822021484375 370.0368041992188 C 403.7485961914062 369.5726623535156 403.5572814941406 369.135009765625 403.2656860351562 368.7662048339844 C 402.9572143554688 368.4062805175781 402.5456848144531 368.1492614746094 402.0865478515625 368.0302124023438 C 401.1049194335938 367.7515258789062 400.5941162109375 367.0864562988281 400.6485595703125 366.1578063964844 C 400.6658020019531 365.8543701171875 400.7546997070312 365.6503295898438 400.9201965332031 365.5343933105469 C 401.0679931640625 365.4483642578125 401.2354431152344 365.4034118652344 401.4055480957031 365.4034118652344 C 401.4293823242188 365.4034118652344 401.4532775878906 365.404296875 401.4771728515625 365.4060668945312 C 401.5585327148438 365.4060668945312 401.6412353515625 365.4094848632812 401.72119140625 365.4129638671875 L 401.7260131835938 365.4129638671875 C 401.8046264648438 365.4163818359375 401.8859558105469 365.41943359375 401.9635009765625 365.41943359375 C 401.9747009277344 365.4197082519531 401.9859008789062 365.4198608398438 401.9971008300781 365.4198608398438 C 402.0940856933594 365.4198608398438 402.1908874511719 365.4091186523438 402.2854309082031 365.3881530761719 C 402.7679443359375 365.2698059082031 403.0230407714844 365.1166687011719 403.0881958007812 364.9071350097656 C 403.1533203125 364.6976318359375 403.0323181152344 364.4302673339844 402.7069702148438 364.0655517578125 C 402.426025390625 363.7504272460938 402.1265258789062 363.442138671875 401.8370056152344 363.1434936523438 L 401.8349609375 363.1414184570312 C 401.4264831542969 362.7209777832031 401.0042419433594 362.2860717773438 400.627197265625 361.8257141113281 C 400.3897094726562 361.5349731445312 399.9888610839844 360.9676208496094 399.982666015625 360.4360656738281 C 399.9933471679688 359.7589416503906 400.0577697753906 359.0835266113281 400.1759948730469 358.416748046875 L 400.1759948730469 358.4129333496094 C 400.2180480957031 358.130126953125 400.2618408203125 357.8373413085938 400.2976684570312 357.5427856445312 C 401.0676879882812 357.6845703125 401.8297729492188 357.8655395507812 402.5811767578125 358.0853881835938 L 402.5825500488281 358.0853881835938 C 403.3973693847656 358.3227844238281 404.2235412597656 358.5178833007812 405.058349609375 358.6699523925781 C 405.1907348632812 358.4205322265625 405.1907348632812 358.1215209960938 405.058349609375 357.8720703125 C 404.96875 357.8194274902344 404.8788146972656 357.7637023925781 404.7919006347656 357.7093200683594 C 404.5413208007812 357.5379638671875 404.2700500488281 357.3986206054688 403.9846801757812 357.293701171875 C 403.3935546875 357.1103210449219 402.8255310058594 356.857421875 402.293701171875 356.5412292480469 C 401.7970275878906 356.242919921875 401.3406982421875 355.8820190429688 400.9356994628906 355.4681091308594 C 400.531005859375 355.0493774414062 400.1770324707031 354.5845336914062 399.8823547363281 354.0825500488281 C 399.5690612792969 353.546142578125 399.3084411621094 352.9804992675781 399.1040649414062 352.3938903808594 C 398.9534301757812 351.9644775390625 398.7431945800781 351.5581665039062 398.4801635742188 351.1865539550781 C 398.2282409667969 350.8328552246094 397.9266357421875 350.5169982910156 397.5843505859375 350.2493591308594 C 397.2428283691406 349.9833679199219 396.8653869628906 349.7669677734375 396.4635009765625 349.6059265136719 C 396.0460815429688 349.4397583007812 395.6087036132812 349.3293151855469 395.1626586914062 349.2777099609375 C 393.7346801757812 349.1046142578125 386.5764465332031 348.6377563476562 386.2179565429688 348.6139831542969 C 385.8467712402344 348.6167602539062 385.4934692382812 348.7733154296875 385.2418212890625 349.0458068847656 C 384.9250793457031 349.3602600097656 384.6145324707031 349.6929626464844 384.3143005371094 350.0146789550781 C 383.846923828125 350.5152893066406 383.3637084960938 351.033447265625 382.8446350097656 351.494140625 C 382.4896240234375 351.8076171875 382.1580200195312 352.1468505859375 381.8529968261719 352.5087890625 L 381.8529968261719 363.4889221191406 C 382.1021728515625 363.5140380859375 382.3276062011719 363.647216796875 382.4699401855469 363.8533020019531 C 382.655029296875 364.13232421875 382.7742919921875 364.4502258300781 382.8180541992188 364.7826232910156 C 382.915283203125 365.2904357910156 382.871826171875 365.8147888183594 382.6929626464844 366.2999267578125 C 382.50341796875 366.7798767089844 382.2173156738281 367.2158203125 381.8529968261719 367.5812072753906 L 381.8529968261719 380.0184631347656 C 383.5100708007812 381.1240844726562 388.2365112304688 381.3696594238281 391.9876403808594 381.3696594238281 M 391.9876403808594 381.8696594238281 C 386.5060424804688 381.8696594238281 383.0028991699219 381.3867797851562 381.5755004882812 380.4343872070312 L 381.3529968261719 380.2859497070312 L 381.3529968261719 380.0184631347656 L 381.3529968261719 367.5812072753906 L 381.3529968261719 367.37451171875 L 381.4989318847656 367.2281799316406 C 381.8160705566406 366.9100952148438 382.0606384277344 366.5377502441406 382.225830078125 366.1215209960938 C 382.3716430664062 365.7229614257812 382.4066162109375 365.2926635742188 382.3269653320312 364.8766479492188 L 382.32421875 364.8623352050781 L 382.3223266601562 364.8478698730469 C 382.2889709472656 364.5945434570312 382.197021484375 364.347900390625 382.0563049316406 364.1342468261719 C 381.9971008300781 364.0505065917969 381.9049377441406 363.9967041015625 381.8028869628906 363.9864196777344 L 381.3529968261719 363.9410705566406 L 381.3529968261719 363.4889221191406 L 381.3529968261719 352.5087890625 L 381.3529968261719 352.3262023925781 L 381.4706726074219 352.1865844726562 C 381.7903442382812 351.8072509765625 382.1412658691406 351.4481811523438 382.5137023925781 351.1193542480469 C 383.0111694335938 350.6778259277344 383.4836120605469 350.1717834472656 383.9404602050781 349.6824035644531 L 383.9488220214844 349.6734619140625 C 384.2495727539062 349.3511962890625 384.560546875 349.0179748535156 384.8823852539062 348.6980895996094 C 385.2261962890625 348.3305053710938 385.7109375 348.1177673339844 386.2142028808594 348.1139831542969 L 386.2326354980469 348.1138610839844 L 386.2510375976562 348.1150817871094 L 386.3453369140625 348.1213073730469 C 388.6012878417969 348.2696533203125 393.9823608398438 348.6309814453125 395.2228393554688 348.7813415527344 C 395.7094116210938 348.837646484375 396.1899719238281 348.9588623046875 396.6484375 349.1413879394531 C 397.0957641601562 349.3206481933594 397.513671875 349.560546875 397.8915710449219 349.8548889160156 C 398.2721862792969 350.1524658203125 398.6069641113281 350.5027160644531 398.8874206542969 350.896484375 C 399.1787719726562 351.3080749511719 399.4100952148438 351.7557983398438 399.5758666992188 352.2283935546875 C 399.7696838378906 352.7846374511719 400.0179443359375 353.3233032226562 400.3141174316406 353.8303833007812 C 400.5868530273438 354.2950134277344 400.9171447753906 354.7294311523438 401.2952270507812 355.1206359863281 C 401.6687622070312 355.5023498535156 402.092041015625 355.8368530273438 402.5511474609375 356.1126098632812 C 403.0473327636719 356.4075927734375 403.5801391601562 356.6447143554688 404.1328125 356.816162109375 L 404.1451416015625 356.8199768066406 L 404.1572265625 356.8244018554688 C 404.4788818359375 356.9426879882812 404.784423828125 357.0995483398438 405.0654907226562 357.2907104492188 C 405.144287109375 357.3399658203125 405.2283325195312 357.3920288085938 405.3116760253906 357.4410095214844 L 405.4336853027344 357.5126953125 L 405.5 357.6376953125 C 405.7104797363281 358.0342712402344 405.7104797363281 358.5078125 405.5 358.9043579101562 L 405.3285522460938 359.2274169921875 L 404.96875 359.161865234375 C 404.144287109375 359.0116882324219 403.3179626464844 358.8178100585938 402.5115661621094 358.5853881835938 L 402.5109252929688 358.5853881835938 L 402.4407653808594 358.5652770996094 C 401.8769836425781 358.4003295898438 401.3009338378906 358.25634765625 400.7222900390625 358.1356506347656 C 400.7069702148438 358.2415466308594 400.69140625 358.3463745117188 400.6759948730469 358.4498901367188 L 400.6759948730469 358.4569091796875 L 400.6683044433594 358.5040283203125 C 400.5557861328125 359.138671875 400.4933471679688 359.7886047363281 400.4827270507812 360.43603515625 C 400.4886169433594 360.7079162597656 400.6869506835938 361.1084899902344 401.0144348144531 361.5093994140625 C 401.3791809082031 361.9547424316406 401.7931823730469 362.3808898925781 402.1935729980469 362.7929992675781 L 402.2170104980469 362.817138671875 C 402.503173828125 363.1123046875 402.799072265625 363.4175109863281 403.0801696777344 363.7328186035156 C 403.3655700683594 364.052734375 403.7265319824219 364.5380554199219 403.5656433105469 365.0555725097656 C 403.4047241210938 365.5731506347656 402.8258972167969 365.7704162597656 402.404541015625 365.873779296875 L 402.3990783691406 365.8750915527344 L 402.3935852050781 365.8763122558594 C 402.26318359375 365.9052124023438 402.1297912597656 365.9198608398438 401.9971008300781 365.9198608398438 C 401.98388671875 365.9198608398438 401.9706726074219 365.9197082519531 401.9574584960938 365.91943359375 C 401.8756713867188 365.9192810058594 401.7929992675781 365.9162902832031 401.7151794433594 365.9129638671875 L 401.7151184082031 365.9129638671875 L 401.699462890625 365.9125061035156 C 401.61865234375 365.9089660644531 401.5461730957031 365.9060668945312 401.4771728515625 365.9060668945312 L 401.4585876464844 365.9060668945312 L 401.4400329589844 365.9046936035156 C 401.4285278320312 365.9038391113281 401.4170227050781 365.9034118652344 401.4055480957031 365.9034118652344 C 401.3343811035156 365.9034118652344 401.2640686035156 365.9198303222656 401.2003479003906 365.951171875 C 401.1846008300781 365.9729309082031 401.1560668945312 366.0401306152344 401.1477661132812 366.1861572265625 C 401.1073608398438 366.8753662109375 401.467529296875 367.3331909179688 402.21826171875 367.5478515625 C 402.7763366699219 367.6938781738281 403.2697143554688 368.0025939941406 403.6453247070312 368.4408264160156 L 403.6517639160156 368.4483337402344 L 403.6578979492188 368.4560852050781 C 404.0001831054688 368.8890075683594 404.2272338867188 369.4060363769531 404.3147888183594 369.9518127441406 C 404.3945007324219 370.3810729980469 404.4701538085938 370.8260498046875 404.5368957519531 371.2188415527344 L 404.5439758300781 371.2604370117188 L 404.5439758300781 371.2632446289062 C 404.67724609375 372.0479431152344 404.8156127929688 372.8578491210938 404.9974975585938 373.6400756835938 C 405.1103210449219 374.0728149414062 405.2532043457031 374.50244140625 405.4229125976562 374.919677734375 C 405.4551086425781 374.6443786621094 405.4756774902344 374.3668518066406 405.4842224121094 374.0910339355469 C 405.4910583496094 373.4169616699219 405.6160583496094 372.9219970703125 405.8663024902344 372.5780639648438 C 406.1549377441406 372.181640625 406.6000061035156 371.9806823730469 407.1891479492188 371.9806823730469 L 407.1935119628906 371.9806823730469 L 407.1978759765625 371.9807739257812 C 407.4686279296875 371.9854736328125 407.7395629882812 372.0183410644531 408.0033264160156 372.0784606933594 C 408.3374633789062 372.14697265625 408.6717834472656 372.2346496582031 408.9971008300781 372.3390808105469 C 410.0677490234375 372.6912231445312 410.8430480957031 372.9907836914062 411.0999145507812 373.6517639160156 C 411.3565063476562 374.3100280761719 410.9869995117188 375.0497436523438 410.4369812011719 376.0228576660156 C 410.2898559570312 376.2832641601562 410.1557006835938 376.568115234375 410.0259399414062 376.8435974121094 L 410.0093994140625 376.878662109375 C 409.9515991210938 377.0018920898438 409.8795166015625 377.1555480957031 409.80810546875 377.3016357421875 C 409.5562744140625 377.8687438964844 409.2240295410156 378.3950805664062 408.8204345703125 378.8663024902344 L 408.8165588378906 378.8708190917969 L 408.8125915527344 378.8752136230469 C 408.3349304199219 379.4068298339844 407.6513977050781 379.7189025878906 406.9367065429688 379.7318420410156 C 406.8915710449219 379.7331848144531 406.8457946777344 379.7339477539062 406.80029296875 379.7340087890625 C 406.7825622558594 379.7342224121094 406.7648010253906 379.7343444824219 406.7470703125 379.7343444824219 C 406.0391540527344 379.7343444824219 405.3377380371094 379.5531616210938 404.7185974121094 379.2103271484375 L 404.7156372070312 379.2087097167969 L 404.7127075195312 379.20703125 C 404.0631713867188 378.8358154296875 403.5546569824219 378.2800903320312 403.2421569824219 377.5999450683594 C 402.804931640625 376.670654296875 402.5245666503906 375.5469970703125 402.386962890625 374.1688537597656 L 402.3859558105469 374.1585693359375 L 402.3853454589844 374.1482543945312 C 402.37939453125 374.04638671875 402.37451171875 373.8908386230469 402.3683166503906 373.6939086914062 C 402.3487854003906 373.0733032226562 402.3161315917969 372.0346374511719 402.2025451660156 371.0901794433594 C 402.0178527832031 369.5545349121094 401.7430114746094 369.3318481445312 401.7314147949219 369.3230895996094 L 401.7176818847656 369.3138427734375 L 401.7053833007812 369.3042297363281 C 401.5735168457031 369.2018127441406 401.4176330566406 369.1377258300781 401.2527770996094 369.1178894042969 C 401.1676330566406 369.1376953125 401.0901794433594 369.369384765625 401.0522766113281 369.5870666503906 C 400.9913635253906 369.9949951171875 400.9534912109375 370.4105834960938 400.9397583007812 370.8224792480469 L 400.9396057128906 370.8273620605469 L 400.9393310546875 370.832275390625 L 400.9388732910156 370.8411865234375 C 400.9231872558594 371.1370544433594 400.9069519042969 371.4429931640625 400.87451171875 371.7486572265625 C 400.7428894042969 372.9782409667969 399.9528503417969 373.7420349121094 398.8126831054688 373.742431640625 C 398.7568054199219 373.742431640625 398.6981201171875 373.740478515625 398.6380310058594 373.7366027832031 L 398.6334838867188 373.736328125 L 398.6289672851562 373.7359313964844 C 397.9620056152344 373.6808776855469 397.2896423339844 373.5890197753906 396.6304626464844 373.4629516601562 C 396.1385803222656 373.3777465820312 395.6300048828125 373.2897338867188 395.1308288574219 373.2369995117188 C 395.0993347167969 373.2337341308594 395.0670166015625 373.2318725585938 395.0352172851562 373.2315673828125 C 395.0136413574219 373.2325744628906 394.9920959472656 373.2337951660156 394.9705810546875 373.2352294921875 L 395.4373474121094 373.4114379882812 L 395.25390625 373.8822326660156 C 395.1302185058594 374.1997375488281 394.9761047363281 374.5071105957031 394.8270568847656 374.8043823242188 L 394.8269958496094 374.8045043945312 L 394.8246765136719 374.80908203125 C 394.5325012207031 375.390869140625 394.2570495605469 375.9392700195312 394.3178405761719 376.3477172851562 C 394.3804931640625 376.767578125 394.7906494140625 377.2294006347656 395.1882934570312 377.6762390136719 C 395.4281921386719 377.935791015625 395.6551208496094 378.2117614746094 395.8627624511719 378.4966125488281 L 395.8661499023438 378.5012512207031 L 395.8694458007812 378.5060119628906 C 396.2254943847656 379.0188293457031 396.5538330078125 379.5388488769531 396.9014587402344 380.0894165039062 L 396.9433288574219 380.1556396484375 C 397.1034851074219 380.4087829589844 397.2690734863281 380.6705627441406 397.4490356445312 380.9506225585938 L 397.8924560546875 381.6405639648438 L 397.0760192871094 381.7186889648438 C 396.7417907714844 381.7506408691406 394.619873046875 381.8696594238281 391.9876403808594 381.8696594238281 Z"/></g><g transform="translate(0 10.113)"><path class="l" d="M352.52,371h15.6a1.7,1.7,0,0,1,1.7,1.7v15.6a1.7,1.7,0,0,1-1.7,1.7h-15.6a1.7,1.7,0,0,1-1.7-1.7v-15.6A1.7,1.7,0,0,1,352.52,371Z" transform="translate(-350.824 -370.161)"/><g transform="translate(5.88)"><text class="m" transform="translate(0 16)"><tspan x="0" y="0">S</tspan></text></g></g></g></g></svg>