<svg xmlns="http://www.w3.org/2000/svg" xmlns:xlink="http://www.w3.org/1999/xlink" width="32" height="32" viewBox="0 0 32 32"><defs><style>.a{fill:none;}.b{clip-path:url(#a);}.c,.d{fill:#fff;}.d{opacity:0;}</style><clipPath id="a"><rect class="a" width="32" height="32"/></clipPath></defs><g class="b"><g transform="translate(3.71 4.21)"><g transform="translate(0 2.646)"><path class="c" d="M20.336,87.454a1.019,1.019,0,0,0-1.019,1.019V96.2a1.559,1.559,0,0,1-1.557,1.557H3.594A1.559,1.559,0,0,1,2.037,96.2V82.033a1.559,1.559,0,0,1,1.557-1.557h7.727a1.019,1.019,0,0,0,0-2.037H3.594A3.6,3.6,0,0,0,0,82.033V96.2a3.6,3.6,0,0,0,3.594,3.594H17.76A3.6,3.6,0,0,0,21.355,96.2V88.472A1.019,1.019,0,0,0,20.336,87.454Z" transform="translate(0 -78.439)"/></g><g transform="translate(14.236)"><path class="c" d="M322.5,0h-7.727a1.019,1.019,0,1,0,0,2.037h6.708V8.745a1.019,1.019,0,1,0,2.037,0V1.019A1.019,1.019,0,0,0,322.5,0Z" transform="translate(-313.757)"/></g><g transform="translate(7.797 0)"><path class="c" d="M198.929.3a1.019,1.019,0,0,0-1.441,0L183.323,14.465a1.019,1.019,0,0,0,1.441,1.441L198.929,1.74A1.019,1.019,0,0,0,198.929.3Z" transform="translate(-183.024 -0.001)"/></g></g><rect class="d" width="32" height="32"/></g></svg>