<svg xmlns="http://www.w3.org/2000/svg" xmlns:xlink="http://www.w3.org/1999/xlink" width="19.386" height="18" viewBox="0 0 19.386 18"><defs><style>.a{fill:none;}.b{clip-path:url(#a);}.c,.d{fill:#339fd9;}.d{stroke:#fff;}.e{fill:#fff;font-size:7px;font-family:Poppins-SemiBold, Poppins;font-weight:600;}.f{stroke:none;}</style><clipPath id="a"><rect class="a" width="19.386" height="18"/></clipPath></defs><g class="b"><g transform="translate(-942.619 -397.5)"><g transform="translate(942.619 397.5)"><path class="c" d="M13.729,3.074a1.572,1.572,0,0,0-.463-1.119L11.774.463A1.572,1.572,0,0,0,10.655,0H1.6A1.584,1.584,0,0,0,.018,1.582V16.418A1.584,1.584,0,0,0,1.6,18H12.147a1.584,1.584,0,0,0,1.582-1.582V11.729M10.565,1.055a.576.576,0,0,1,.463.154L12.52,2.7a.576.576,0,0,1,.154.463H10.565Zm2.109,11.73v3.634h0a.528.528,0,0,1-.527.527H1.6a.528.528,0,0,1-.527-.527V1.582A.528.528,0,0,1,1.6,1.055H9.51V3.691a.527.527,0,0,0,.527.527h2.637V8.308" transform="translate(-0.018)"/></g><g transform="translate(945.083 402.768)"><path class="c" d="M68.011,150H60.546a.537.537,0,0,0,0,1.073h7.465a.537.537,0,0,0,0-1.073Z" transform="translate(-60.018 -150)"/></g><g transform="translate(945.083 404.875)"><path class="c" d="M68.006,210H60.551a.537.537,0,0,0,0,1.073h7.455a.537.537,0,0,0,0-1.073Z" transform="translate(-60.018 -210)"/></g><g transform="translate(945.083 406.982)"><path class="c" d="M68.006,270H60.551a.537.537,0,0,0,0,1.073h7.455a.537.537,0,0,0,0-1.073Z" transform="translate(-60.018 -270)"/></g><g transform="translate(945.083 409.089)"><path class="c" d="M68.006,330H60.551a.537.537,0,0,0,0,1.073h7.455a.537.537,0,0,0,0-1.073Z" transform="translate(-60.018 -330)"/></g><g transform="translate(949.197 411.575)"><path class="c" d="M183.91,422h-3.336a.537.537,0,1,0,0,1.073h3.336a.537.537,0,1,0,0-1.073Z" transform="translate(-180.018 -422)"/></g></g><g class="d" transform="translate(7.618 6.285)"><rect class="f" width="10.767" height="8.613" rx="1"/><rect class="a" x="-0.5" y="-0.5" width="11.767" height="9.613" rx="1.5"/></g><text class="e" transform="translate(13 13)"><tspan x="-2.464" y="0">A</tspan></text></g></svg>