<svg xmlns="http://www.w3.org/2000/svg" width="20" height="20" viewBox="0 0 20 20"><defs><style>.a{fill:#fff;}.b{fill:#bdbdbd;}</style></defs><rect class="a" width="20" height="20"/><g transform="translate(4 2)"><path class="b" d="M11.556,1.874H9.417V.5a.493.493,0,0,0-.5-.5c-.024,0-.048,0-.048.024A.084.084,0,0,0,8.817,0H3.724a.493.493,0,0,0-.5.5V1.9H1.081A1.048,1.048,0,0,0,0,2.979V4.757H.937V14.919A1.048,1.048,0,0,0,2.018,16h8.577a1.048,1.048,0,0,0,1.081-1.081V4.757h.937V2.979a1.048,1.048,0,0,0-1.057-1.105ZM4.228.985h4.18v.889H4.228Zm6.486,13.934c0,.072-.024.1-.1.1h-8.6c-.072,0-.1-.024-.1-.1V4.757h8.769V14.919Zm.913-11.147H1.009V2.979c0-.072.024-.1.1-.1h10.45a.088.088,0,0,1,.1.1v.793Zm0,0"/><rect class="b" width="1.009" height="8.192" transform="translate(8.144 5.91)"/><rect class="b" width="1.009" height="8.192" transform="translate(5.838 5.91)"/><rect class="b" width="1.009" height="8.192" transform="translate(3.532 5.91)"/></g></svg>