<svg xmlns="http://www.w3.org/2000/svg" width="12" height="12" viewBox="0 0 12 12"><defs><style>.a{fill:#fff;}.b,.d{fill:#323130;}.b{font-size:9px;font-family:Poppins-SemiBold, Poppins;font-weight:600;}.c,.d{stroke:none;}</style></defs><g transform="translate(-153 -268)"><g class="a" transform="translate(153 268)"><path class="c" d="M 6 11.50003623962402 C 2.967289924621582 11.50003623962402 0.5 9.032736778259277 0.5 6.000016689300537 C 0.5 2.967296600341797 2.967289924621582 0.499996691942215 6 0.499996691942215 C 9.032710075378418 0.499996691942215 11.5 2.967296600341797 11.5 6.000016689300537 C 11.5 9.032736778259277 9.032710075378418 11.50003623962402 6 11.50003623962402 Z"/><path class="d" d="M 6 0.9999971389770508 C 3.242989540100098 0.9999971389770508 1 3.242996215820312 1 6.000016689300537 C 1 8.757036209106445 3.242989540100098 11.00003623962402 6 11.00003623962402 C 8.757009506225586 11.00003623962402 11 8.757036209106445 11 6.000016689300537 C 11 3.242996215820312 8.757009506225586 0.9999971389770508 6 0.9999971389770508 M 6 -2.86102294921875e-06 C 9.31371021270752 -2.86102294921875e-06 12 2.686296463012695 12 6.000016689300537 C 12 9.313736915588379 9.31371021270752 12.00003623962402 6 12.00003623962402 C 2.68628978729248 12.00003623962402 0 9.313736915588379 0 6.000016689300537 C 0 2.686296463012695 2.68628978729248 -2.86102294921875e-06 6 -2.86102294921875e-06 Z"/></g><text class="b" transform="translate(159 277)"><tspan x="-2.362" y="0">E</tspan></text></g></svg>