<svg xmlns="http://www.w3.org/2000/svg" xmlns:xlink="http://www.w3.org/1999/xlink" width="72.005" height="15.376" viewBox="0 0 72.005 15.376"><defs><style>.a{fill:none;}.b{clip-path:url(#a);}.c{fill:#747474;}.d{fill:#f05325;}.e{fill:#7fbb42;}.f{fill:#339fd9;}.g{fill:#fcb816;}</style><clipPath id="a"><rect class="a" width="72.005" height="15.376"/></clipPath></defs><g class="b"><g transform="translate(19.892 2.395)"><path class="c" d="M335.984,15943.988l-.432,1.212h-.025a11.621,11.621,0,0,0-.409-1.2l-2.314-5.8h-2.262v9.229h1.492v-5.672c0-.351-.008-.774-.022-1.259-.008-.246-.036-.441-.042-.591H332c.076.347.154.613.211.791l2.775,6.73h1.044l2.754-6.792a6.1,6.1,0,0,0,.19-.729h.033c-.036.671-.067,1.287-.071,1.658v5.863h1.592v-9.229h-2.173Z" transform="translate(-330.542 -15937.521)"/><rect class="c" width="1.556" height="6.614" transform="translate(11.486 3.291)"/><path class="c" d="M423.953,15936.6a.94.94,0,0,0-.663.26.861.861,0,0,0-.278.649.835.835,0,0,0,.275.637.951.951,0,0,0,.666.252.962.962,0,0,0,.669-.252.829.829,0,0,0,.278-.637.876.876,0,0,0-.271-.643A.929.929,0,0,0,423.953,15936.6Z" transform="translate(-411.673 -15936.121)"/><path class="c" d="M450.057,15958.313a4.335,4.335,0,0,0-.869-.093,3.828,3.828,0,0,0-1.892.455,3.066,3.066,0,0,0-1.247,1.284,4.078,4.078,0,0,0-.429,1.9,3.522,3.522,0,0,0,.417,1.706,2.923,2.923,0,0,0,1.164,1.175,3.455,3.455,0,0,0,1.7.414,3.728,3.728,0,0,0,1.877-.438l.02-.014v-1.425l-.065.049a2.891,2.891,0,0,1-.761.4,2.329,2.329,0,0,1-.745.144,1.915,1.915,0,0,1-1.456-.567,2.208,2.208,0,0,1-.537-1.572,2.29,2.29,0,0,1,.56-1.614,1.907,1.907,0,0,1,1.459-.6,2.5,2.5,0,0,1,1.481.515l.065.048v-1.5l-.021-.013A2.638,2.638,0,0,0,450.057,15958.313Z" transform="translate(-431.508 -15955.088)"/><path class="c" d="M500.632,15958.587a1.591,1.591,0,0,0-1.04.373,2.1,2.1,0,0,0-.6.887h-.017v-1.145h-1.556v6.613h1.556v-3.384a2.367,2.367,0,0,1,.388-1.405,1.188,1.188,0,0,1,1.006-.53,1.811,1.811,0,0,1,.468.068,1.176,1.176,0,0,1,.363.147l.065.047v-1.569l-.025-.01A1.59,1.59,0,0,0,500.632,15958.587Z" transform="translate(-476.958 -15955.41)"/><path class="c" d="M532.994,15958.22a3.451,3.451,0,0,0-2.574.95,3.562,3.562,0,0,0-.93,2.593,3.374,3.374,0,0,0,.908,2.477,3.292,3.292,0,0,0,2.436.914,3.361,3.361,0,0,0,2.524-.962,3.558,3.558,0,0,0,.93-2.569,3.465,3.465,0,0,0-.873-2.493A3.215,3.215,0,0,0,532.994,15958.22Zm1.237,5.094a1.578,1.578,0,0,1-1.307.552,1.667,1.667,0,0,1-1.339-.562,2.388,2.388,0,0,1-.481-1.59,2.482,2.482,0,0,1,.481-1.632,1.643,1.643,0,0,1,1.327-.572,1.618,1.618,0,0,1,1.292.547,2.434,2.434,0,0,1,.472,1.617A2.6,2.6,0,0,1,534.231,15963.313Z" transform="translate(-505.094 -15955.088)"/><path class="c" d="M593.768,15961.112a3.335,3.335,0,0,1-.933-.485.676.676,0,0,1-.189-.509.569.569,0,0,1,.24-.472,1.076,1.076,0,0,1,.67-.189,2.718,2.718,0,0,1,.8.124,2.547,2.547,0,0,1,.7.322l.064.043v-1.439l-.025-.009a3.269,3.269,0,0,0-.707-.2,4.307,4.307,0,0,0-.776-.081,2.849,2.849,0,0,0-1.825.564,1.8,1.8,0,0,0-.71,1.468,2.036,2.036,0,0,0,.154.819,1.638,1.638,0,0,0,.471.615,4.091,4.091,0,0,0,.957.536,6.735,6.735,0,0,1,.8.371,1.1,1.1,0,0,1,.351.288.643.643,0,0,1,.1.374c0,.445-.333.66-1.017.66a2.8,2.8,0,0,1-.861-.157,3.239,3.239,0,0,1-.882-.446l-.065-.047v1.517l.024.01a3.817,3.817,0,0,0,.835.259,4.475,4.475,0,0,0,.891.1,3.02,3.02,0,0,0,1.927-.567,1.831,1.831,0,0,0,.717-1.5,1.73,1.73,0,0,0-.386-1.138A3.314,3.314,0,0,0,593.768,15961.112Z" transform="translate(-559.124 -15955.088)"/><path class="c" d="M635.944,15958.22a3.451,3.451,0,0,0-2.574.95,3.562,3.562,0,0,0-.93,2.593,3.373,3.373,0,0,0,.908,2.477,3.292,3.292,0,0,0,2.437.914,3.36,3.36,0,0,0,2.523-.962,3.556,3.556,0,0,0,.93-2.569,3.466,3.466,0,0,0-.873-2.493A3.214,3.214,0,0,0,635.944,15958.22Zm1.237,5.094a1.579,1.579,0,0,1-1.307.552,1.668,1.668,0,0,1-1.34-.562,2.389,2.389,0,0,1-.482-1.59,2.484,2.484,0,0,1,.482-1.632,1.642,1.642,0,0,1,1.327-.572,1.618,1.618,0,0,1,1.292.547,2.433,2.433,0,0,1,.472,1.617A2.6,2.6,0,0,1,637.181,15963.313Z" transform="translate(-595.42 -15955.088)"/><path class="c" d="M697.257,15937.246v-1.271h-1.575V15934l-.053.018-1.48.452-.03.009v1.494h-2.334v-.832a1.318,1.318,0,0,1,.258-.882.906.906,0,0,1,.721-.295,1.7,1.7,0,0,1,.685.155l.058.026v-1.338l-.027-.01a2.686,2.686,0,0,0-.875-.116,2.574,2.574,0,0,0-1.241.3,2.133,2.133,0,0,0-.851.844,2.5,2.5,0,0,0-.3,1.234v.916h-1.1v1.271h1.1v5.344h1.575v-5.344h2.334v3.4c0,1.4.66,2.108,1.961,2.108a3.166,3.166,0,0,0,.669-.075,1.818,1.818,0,0,0,.487-.154l.021-.012v-1.281l-.064.043a1.067,1.067,0,0,1-.317.139,1.2,1.2,0,0,1-.311.053.841.841,0,0,1-.67-.244,1.318,1.318,0,0,1-.213-.852v-3.12Z" transform="translate(-645.144 -15932.685)"/></g><rect class="d" width="7.318" height="7.319"/><rect class="e" width="7.318" height="7.319" transform="translate(8.08)"/><rect class="f" width="7.318" height="7.319" transform="translate(0 8.057)"/><rect class="g" width="7.318" height="7.319" transform="translate(8.08 8.057)"/></g></svg>