<svg xmlns="http://www.w3.org/2000/svg" xmlns:xlink="http://www.w3.org/1999/xlink" width="140.821" height="39.982" viewBox="0 0 140.821 39.982">
  <defs>
    <clipPath id="clip-path">
      <rect width="140.821" height="39.982" fill="none"/>
    </clipPath>
  </defs>
  <g id="Component_74_3" data-name="Component 74 – 3" clip-path="url(#clip-path)">
    <rect id="Rectangle_342" data-name="Rectangle 342" width="140" height="40" transform="translate(0)" fill="#fff" opacity="0"/>
    <g id="Group_2847" data-name="Group 2847" transform="translate(49.805 7)">
      <g id="MS-logo">
        <text id="Sherlock" transform="translate(0 22)" fill="#fff" font-size="20" font-family="SegoeUI-Semibold, Segoe UI" font-weight="600" letter-spacing="-0.035em"><tspan x="0" y="0">Sherlock</tspan></text>
      </g>
    </g>
    <g id="Group_2882" data-name="Group 2882" transform="translate(0 -0.008)">
      <g id="Group_864" data-name="Group 864" transform="translate(11.433 2.838)">
        <path id="Rectangle_284" data-name="Rectangle 284" d="M2,0H26.664a2,2,0,0,1,2,2v29.44a2,2,0,0,1-2,2H2a2,2,0,0,1-2-2V2A2,2,0,0,1,2,0Z" transform="translate(0)" fill="#195076"/>
        <rect id="Rectangle_285" data-name="Rectangle 285" width="28.664" height="8.65" transform="translate(0 16.643)" fill="#186ba5"/>
        <rect id="Rectangle_286" data-name="Rectangle 286" width="28.664" height="8.31" transform="translate(0 8.322)" fill="#1d7ec3"/>
        <path id="Rectangle_287" data-name="Rectangle 287" d="M385.589,347.38h25.272a1.7,1.7,0,0,1,1.7,1.7v6.614H383.893v-6.614A1.7,1.7,0,0,1,385.589,347.38Z" transform="translate(-383.893 -347.38)" fill="#3da6e0"/>
      </g>
      <g id="Group_865" data-name="Group 865" transform="translate(8.653)">
        <rect id="Rectangle_284-2" data-name="Rectangle 284-2" width="26.821" height="40.077" rx="3" transform="translate(0)" fill="#005eab"/>
      </g>
      <g id="Subtraction_3" data-name="Subtraction 3" transform="translate(-372.116 -345.351)" fill="#fff">
        <path d="M381.846,381.9V367.636a3.8,3.8,0,0,0,.84-1.285,2.856,2.856,0,0,0,.125-1.522,2.212,2.212,0,0,0-.348-.932.853.853,0,0,0-.617-.365V352.52a9.671,9.671,0,0,1,.992-1.018c.519-.462,1-.982,1.47-1.484.3-.323.611-.656.928-.972a1.341,1.341,0,0,1,.976-.433c.359.024,7.518.492,8.946.666a5.091,5.091,0,0,1,1.3.329,4.619,4.619,0,0,1,1.121.645,4.521,4.521,0,0,1,.9.94,4.916,4.916,0,0,1,.624,1.211,9.67,9.67,0,0,0,.778,1.693,7.363,7.363,0,0,0,1.053,1.39,6.8,6.8,0,0,0,1.358,1.076,7.868,7.868,0,0,0,1.691.755,3.669,3.669,0,0,1,.807.417c.087.055.177.11.267.163a.856.856,0,0,1,0,.8,24.545,24.545,0,0,1-2.476-.586h0a22.867,22.867,0,0,0-2.284-.544c-.036.3-.08.589-.122.873v0a12.785,12.785,0,0,0-.193,2.025,2.574,2.574,0,0,0,.645,1.394c.377.462.8.9,1.208,1.32l0,0c.29.3.589.609.87.925.325.366.446.634.381.844s-.32.364-.8.482a1.325,1.325,0,0,1-.322.031c-.078,0-.159,0-.238-.006h0c-.08,0-.163-.007-.244-.007a.962.962,0,0,0-.557.129.763.763,0,0,0-.272.625,1.757,1.757,0,0,0,1.438,1.878,2.319,2.319,0,0,1,1.179.738,2.75,2.75,0,0,1,.556,1.274c.078.422.151.853.222,1.269v0c.137.81.279,1.648.468,2.462a10.829,10.829,0,0,0,.52,1.526c.088.222.179.451.262.679l.181-.031.021,0,.31-.053c.02-.185.044-.373.068-.554a10.269,10.269,0,0,0,.11-1.22,2.146,2.146,0,0,1,.286-1.233,1.05,1.05,0,0,1,.919-.393,3.427,3.427,0,0,1,.708.087,8.976,8.976,0,0,1,.947.249c1.061.35,1.628.6,1.79,1.021s-.087.982-.632,1.95c-.163.289-.305.594-.445.891-.066.14-.133.285-.2.426a5.912,5.912,0,0,1-.914,1.455,2.083,2.083,0,0,1-1.516.693l-.128,0a3.68,3.68,0,0,1-1.836-.462,3.071,3.071,0,0,1-1.264-1.386,10.021,10.021,0,0,1-.812-3.281c-.042-.717-.04-4.661-.873-5.225a1.414,1.414,0,0,0-.748-.294c-.368,0-.6.3-.706.894a11.352,11.352,0,0,0-.119,1.3c-.016.294-.031.6-.063.893a1.526,1.526,0,0,1-1.565,1.551c-.047,0-.094,0-.142,0a18.369,18.369,0,0,1-1.95-.267c-.5-.087-1.022-.177-1.537-.232a1.528,1.528,0,0,0-.158-.008,3.67,3.67,0,0,0-.784.119h0c-.141.031-.288.064-.43.087q.011.165.023.33l0,.033,0,.049.795.3.112.041.043.016c-.116.3-.265.6-.41.886a3.388,3.388,0,0,0-.555,1.842,3.5,3.5,0,0,0,.995,1.6,8.669,8.669,0,0,1,.641.781c.341.492.656.991,1.02,1.57.174.275,2.626,4.072,2.626,4.072l-14.894-.233a2.762,2.762,0,0,1-1.825-.519A2.953,2.953,0,0,1,381.846,381.9Z" stroke="none"/>
        <path d="M 399.0991821289062 384.52001953125 C 399.0991821289062 384.52001953125 396.6470947265625 380.7230529785156 396.4734497070312 380.4477233886719 C 396.1090393066406 379.8689880371094 395.7942810058594 379.3704223632812 395.4533081054688 378.8779907226562 C 395.2551879882812 378.6054382324219 395.0411071777344 378.3445739746094 394.8125305175781 378.0968322753906 C 394.3650817871094 377.5926818847656 393.9024047851562 377.0709533691406 393.8176574707031 376.5012512207031 C 393.7335510253906 375.9343566894531 394.0437927246094 375.3153381347656 394.372314453125 374.6593933105469 C 394.5171203613281 374.3699035644531 394.6667175292969 374.0711059570312 394.7825927734375 373.7729187011719 L 394.7397766113281 373.7567138671875 L 394.6281127929688 373.7153015136719 L 393.8331909179688 373.4181823730469 L 393.829345703125 373.3692626953125 L 393.8269653320312 373.3364562988281 C 393.8190612792969 373.2263488769531 393.8114624023438 373.1166381835938 393.8038024902344 373.0069274902344 C 393.9455261230469 372.9841003417969 394.0923767089844 372.9513244628906 394.2337036132812 372.9199523925781 L 394.23583984375 372.9199523925781 C 394.4919128417969 372.8519592285156 394.7550048828125 372.8122863769531 395.0196838378906 372.8009033203125 C 395.0724182128906 372.8009033203125 395.1251525878906 372.8036804199219 395.1779479980469 372.8091735839844 C 395.6925659179688 372.8636779785156 396.2121276855469 372.9537658691406 396.7147216796875 373.0410461425781 C 397.3597106933594 373.1649169921875 398.0108642578125 373.2543029785156 398.6651611328125 373.3084106445312 C 398.7130737304688 373.3115539550781 398.760986328125 373.3132934570312 398.8075561523438 373.3132934570312 C 399.6968688964844 373.31298828125 400.2674560546875 372.7470703125 400.3725280761719 371.7622985839844 C 400.4039916992188 371.4658203125 400.4197692871094 371.1632995605469 400.4353332519531 370.8695678710938 C 400.4497985839844 370.4338073730469 400.4894104003906 369.9990539550781 400.5538940429688 369.5677490234375 C 400.6552734375 368.9749145507812 400.8923950195312 368.6740112304688 401.2599182128906 368.6740112304688 C 401.5322570800781 368.697509765625 401.7917785644531 368.7996215820312 402.007568359375 368.9677429199219 C 402.8397827148438 369.5314636230469 402.8384094238281 373.4751586914062 402.8800964355469 374.1925354003906 C 403.0120849609375 375.5182189941406 403.2779235839844 376.5909118652344 403.6922607421875 377.4740295410156 C 403.9590759277344 378.0564270019531 404.4009704589844 378.5412292480469 404.9566955566406 378.8596801757812 C 405.5036010742188 379.1633605957031 406.1183776855469 379.3224792480469 406.743408203125 379.3224792480469 C 406.7597961425781 379.3224792480469 406.7763061523438 379.3223571777344 406.792724609375 379.3221435546875 C 406.83544921875 379.3221435546875 406.8785400390625 379.3213806152344 406.9209289550781 379.3200378417969 C 407.5003662109375 379.3103332519531 408.0499267578125 379.0592041015625 408.4370422363281 378.6271362304688 C 408.8110656738281 378.1893005371094 409.1189270019531 377.6992797851562 409.3512573242188 377.1724548339844 C 409.420166015625 377.0312805175781 409.4881286621094 376.8863830566406 409.5536499023438 376.7463073730469 C 409.6932373046875 376.4491882324219 409.8355712890625 376.1437683105469 409.9983215332031 375.8550109863281 C 410.5436706542969 374.8874816894531 410.7925109863281 374.3222351074219 410.6304931640625 373.9054565429688 C 410.4688110351562 373.4882202148438 409.9014282226562 373.234619140625 408.8406982421875 372.884765625 C 408.5298461914062 372.78466796875 408.2133178710938 372.7015686035156 407.8934326171875 372.6359558105469 C 407.6610412597656 372.5824890136719 407.423583984375 372.5534973144531 407.185302734375 372.54931640625 C 406.7586059570312 372.54931640625 406.4583129882812 372.6780700683594 406.2666625976562 372.9419860839844 C 406.0791625976562 373.2005004882812 405.9854125976562 373.603515625 405.9801940917969 374.174560546875 C 405.9677734375 374.5831298828125 405.930908203125 374.9909362792969 405.8699035644531 375.39501953125 C 405.8461303710938 375.5758666992188 405.8215637207031 375.7642517089844 405.8019104003906 375.9491882324219 L 405.4920654296875 376.002685546875 L 405.471435546875 376.0060729980469 L 405.2900085449219 376.0375061035156 C 405.2073059082031 375.8094482421875 405.1163635253906 375.5799865722656 405.028076171875 375.3583984375 C 404.8171081542969 374.8633117675781 404.6430053710938 374.353271484375 404.5078735351562 373.8323059082031 C 404.3189697265625 373.0189819335938 404.1769409179688 372.1808471679688 404.0397338867188 371.3706359863281 L 404.0397338867188 371.3678283691406 C 403.9690551757812 370.9510192871094 403.89599609375 370.5203552246094 403.8177795410156 370.098388671875 C 403.7442932128906 369.6329040527344 403.5529479980469 369.1940307617188 403.2613220214844 368.8241577148438 C 402.9528198242188 368.4631958007812 402.5412902832031 368.2054138183594 402.0820922851562 368.0860595703125 C 401.1002807617188 367.8065490722656 400.5894470214844 367.1395263671875 400.6438903808594 366.208251953125 C 400.6611022949219 365.9039001464844 400.7500305175781 365.6992797851562 400.91552734375 365.5830688476562 C 401.0633544921875 365.4967651367188 401.2307434082031 365.45166015625 401.4008483886719 365.45166015625 C 401.4247436523438 365.45166015625 401.4486694335938 365.4525451660156 401.4726257324219 365.454345703125 C 401.5539855957031 365.454345703125 401.6366577148438 365.4577331542969 401.7166137695312 365.4612426757812 L 401.7214660644531 365.4612426757812 C 401.8001098632812 365.4646606445312 401.8814086914062 365.4677124023438 401.958984375 365.4677124023438 C 401.9702453613281 365.468017578125 401.9814758300781 365.4681396484375 401.9927368164062 365.4681396484375 C 402.0896911621094 365.4681396484375 402.1864624023438 365.4573669433594 402.2809448242188 365.4363403320312 C 402.7635192871094 365.3176574707031 403.0186767578125 365.1640625 403.0838317871094 364.9539489746094 C 403.1489562988281 364.7438354492188 403.0279541015625 364.4757385253906 402.7025451660156 364.1100158691406 C 402.4216003417969 363.7938842773438 402.1220703125 363.4847412109375 401.8324584960938 363.1852416992188 L 401.8304443359375 363.1831665039062 C 401.4219055175781 362.7615051269531 400.9996032714844 362.3253784179688 400.6224975585938 361.8636474609375 C 400.3849487304688 361.5720520019531 399.9840698242188 361.0031127929688 399.9779052734375 360.4700012207031 C 399.9885559082031 359.7909240722656 400.052978515625 359.1135559082031 400.1712036132812 358.4448547363281 L 400.1712036132812 358.4410400390625 C 400.2133178710938 358.1574401855469 400.257080078125 357.8638000488281 400.2929077148438 357.5683898925781 C 401.0630493164062 357.7106018066406 401.8252258300781 357.89208984375 402.5767517089844 358.1125183105469 L 402.5780944824219 358.1125183105469 C 403.3930358886719 358.3507080078125 404.2193298339844 358.5463256835938 405.0542602539062 358.6988220214844 C 405.1866149902344 358.4486694335938 405.1866149902344 358.1487731933594 405.0542602539062 357.8986206054688 C 404.9646301269531 357.8458862304688 404.8746948242188 357.7899780273438 404.7877502441406 357.7354431152344 C 404.5371704101562 357.5635375976562 404.2658386230469 357.4237670898438 403.9804077148438 357.318603515625 C 403.3891906738281 357.1346740722656 402.8211364746094 356.8810424804688 402.2892456054688 356.5639343261719 C 401.79248046875 356.2648315429688 401.3361206054688 355.90283203125 400.9310302734375 355.4877624511719 C 400.5263061523438 355.0678100585938 400.1722412109375 354.6016235351562 399.8775634765625 354.09814453125 C 399.564208984375 353.5602111816406 399.3035888671875 352.9929809570312 399.0991821289062 352.4046936035156 C 398.9484558105469 351.9739990234375 398.7382507324219 351.5665588378906 398.4751892089844 351.19384765625 C 398.2232360839844 350.8391418457031 397.9216003417969 350.5223693847656 397.5792236328125 350.2539367675781 C 397.2376403808594 349.9871826171875 396.8601684570312 349.7702026367188 396.4581909179688 349.6086730957031 C 396.0408020019531 349.4420471191406 395.6033020019531 349.3312683105469 395.1572265625 349.279541015625 C 393.7290649414062 349.1058959960938 386.5698547363281 348.6376953125 386.2112731933594 348.6138610839844 C 385.8400573730469 348.6166381835938 385.4867248535156 348.773681640625 385.2350158691406 349.0469360351562 C 384.918212890625 349.3622741699219 384.6076354980469 349.6959838867188 384.3074035644531 350.0185852050781 C 383.8399047851562 350.5206909179688 383.3566589355469 351.0403137207031 382.8374938964844 351.5023193359375 C 382.4824829101562 351.8166809082031 382.1507568359375 352.1569213867188 381.845703125 352.5198669433594 L 381.845703125 363.5316467285156 C 382.094970703125 363.5568237304688 382.3204345703125 363.6903991699219 382.4627990722656 363.8970947265625 C 382.6478576660156 364.1769104003906 382.7671203613281 364.4957275390625 382.8109130859375 364.8291015625 C 382.908203125 365.33837890625 382.8647155761719 365.8642578125 382.6858520507812 366.3507995605469 C 382.4962463378906 366.8320922851562 382.2100830078125 367.269287109375 381.845703125 367.6357116699219 L 381.845703125 381.9022827148438 C 381.845703125 381.9022827148438 381.7904968261719 383.1714477539062 382.3804321289062 383.7676391601562 C 382.8495788574219 384.2417602539062 383.7267761230469 384.290283203125 384.0662536621094 384.290283203125 C 384.1536560058594 384.290283203125 384.2054138183594 384.2870788574219 384.2054138183594 384.2870788574219 L 399.0991821289062 384.52001953125 M 400.0267028808594 385.0345764160156 L 399.0913696289062 385.0199584960938 L 384.2140502929688 384.7872619628906 C 384.1864013671875 384.7885131835938 384.135009765625 384.790283203125 384.0662536621094 384.790283203125 C 383.5518798828125 384.790283203125 382.6026916503906 384.703125 382.0250244140625 384.1193237304688 C 381.3181457519531 383.4049377441406 381.3382873535156 382.0917663574219 381.345703125 381.8922424316406 L 381.345703125 367.6357116699219 L 381.345703125 367.4294128417969 L 381.4911499023438 367.2831420898438 C 381.8084716796875 366.9640502929688 382.0531921386719 366.5905456542969 382.2185363769531 366.1728515625 C 382.3645629882812 365.7726440429688 382.3995666503906 365.3405456542969 382.3197937011719 364.9229125976562 L 382.3170776367188 364.9086303710938 L 382.315185546875 364.8942260742188 C 382.28173828125 364.6397399902344 382.1896667480469 364.3920288085938 382.0487670898438 364.1774597167969 C 381.9894714355469 364.0933837890625 381.8973693847656 364.0393981933594 381.7954406738281 364.0291137695312 L 381.345703125 363.9836730957031 L 381.345703125 363.5316467285156 L 381.345703125 352.5198669433594 L 381.345703125 352.337646484375 L 381.4629516601562 352.1981506347656 C 381.782470703125 351.8179931640625 382.1334228515625 351.4579467773438 382.5060119628906 351.1279907226562 C 383.0034790039062 350.685302734375 383.4758605957031 350.1779479980469 383.9327087402344 349.6872863769531 L 383.9414672851562 349.6778564453125 C 384.2426147460938 349.354248046875 384.5540161132812 349.0196533203125 384.875244140625 348.6995544433594 C 385.2192077636719 348.3309326171875 385.7041015625 348.1176452636719 386.2075500488281 348.1138610839844 L 386.2260131835938 348.1137390136719 L 386.2444458007812 348.1149597167969 L 386.3362121582031 348.1210327148438 C 388.5928955078125 348.2698364257812 393.9757690429688 348.6322021484375 395.2175598144531 348.783203125 C 395.7042541503906 348.8396301269531 396.1849670410156 348.9612121582031 396.6435852050781 349.1443176269531 C 397.091064453125 349.3241271972656 397.5090637207031 349.5647277832031 397.886962890625 349.85986328125 C 398.2675170898438 350.1582336425781 398.6023254394531 350.5094299316406 398.8828125 350.904296875 C 399.1739807128906 351.3168334960938 399.4052734375 351.7656555175781 399.5711059570312 352.2395324707031 C 399.7650451660156 352.7976379394531 400.0133972167969 353.3379516601562 400.3096008300781 353.8464660644531 C 400.5823669433594 354.3125 400.9127197265625 354.7482604980469 401.2910461425781 355.1408081054688 C 401.6648559570312 355.5238037109375 402.0882263183594 355.8592529296875 402.5471496582031 356.1355895996094 C 403.0434265136719 356.4314575195312 403.5762634277344 356.6692504882812 404.1289367675781 356.8411865234375 L 404.1412048339844 356.8450012207031 L 404.1532592773438 356.8494262695312 C 404.4750366210938 356.9679870605469 404.7806701660156 357.1253051757812 405.0618286132812 357.317138671875 C 405.1414184570312 357.3670349121094 405.2259521484375 357.4195251464844 405.3078308105469 357.4676818847656 L 405.4299621582031 357.53955078125 L 405.4962158203125 357.664794921875 C 405.7062377929688 358.0617370605469 405.7062377929688 358.5357055664062 405.4962158203125 358.9326477050781 L 405.3248596191406 359.2565307617188 L 404.9644165039062 359.190673828125 C 404.1392822265625 359.0399780273438 403.3128967285156 358.8455505371094 402.5068969726562 358.6125183105469 L 402.5062866210938 358.6125183105469 L 402.43603515625 358.5923156738281 C 401.8722534179688 358.4269409179688 401.2962646484375 358.2826232910156 400.7176818847656 358.1615905761719 C 400.7023315429688 358.2681884765625 400.6866760253906 358.3737487792969 400.6712036132812 358.4779663085938 L 400.6712036132812 358.4848937988281 L 400.66357421875 358.5318908691406 C 400.5509948730469 359.1685180664062 400.4885559082031 359.820556640625 400.4779663085938 360.469970703125 C 400.4838256835938 360.7431945800781 400.6823425292969 361.1454467773438 401.0101318359375 361.5478515625 C 401.3748474121094 361.994384765625 401.7890014648438 362.4218444824219 402.1895446777344 362.8352355957031 L 402.2115783691406 362.8580322265625 C 402.4982604980469 363.1544799804688 402.7947082519531 363.4610290527344 403.0762939453125 363.7778625488281 C 403.3612976074219 364.0981750488281 403.7218933105469 364.5841979980469 403.5614318847656 365.1019592285156 C 403.400634765625 365.6204833984375 402.82177734375 365.8182373046875 402.4003601074219 365.921875 L 402.3949890136719 365.9231872558594 L 402.3895874023438 365.9244079589844 C 402.2591247558594 365.9534301757812 402.1255798339844 365.9681701660156 401.9927368164062 365.9681701660156 C 401.9794921875 365.9681701660156 401.9662475585938 365.968017578125 401.9530029296875 365.9677124023438 C 401.8712463378906 365.9675598144531 401.7885131835938 365.9645690917969 401.7106323242188 365.9612426757812 L 401.7104797363281 365.9612426757812 L 401.6946716308594 365.9607543945312 C 401.6176147460938 365.9573974609375 401.5426635742188 365.954345703125 401.4726257324219 365.954345703125 L 401.4539489746094 365.954345703125 L 401.4353332519531 365.9529418945312 C 401.423828125 365.9520874023438 401.4123229980469 365.95166015625 401.4008483886719 365.95166015625 C 401.3298950195312 365.95166015625 401.2597351074219 365.9681396484375 401.1961364746094 365.9995422363281 C 401.1802368164062 366.0213928222656 401.1514282226562 366.0891723632812 401.1430969238281 366.2364807128906 C 401.1026306152344 366.9285888671875 401.4629211425781 367.3882446289062 402.2138061523438 367.6036682128906 C 402.7721252441406 367.7500915527344 403.2656860351562 368.0596923828125 403.6414184570312 368.4992980957031 L 403.6478576660156 368.5068359375 L 403.6539611816406 368.5145874023438 C 403.9960021972656 368.9484252929688 404.2229614257812 369.466552734375 404.310546875 370.0133361816406 C 404.3893737792969 370.4390563964844 404.4622192382812 370.8686828613281 404.5326843261719 371.2842407226562 L 404.5397338867188 371.3257446289062 L 404.5397338867188 371.3285827636719 C 404.673095703125 372.1160278320312 404.8115844726562 372.9288024902344 404.9935302734375 373.7131958007812 C 405.1063842773438 374.1470642089844 405.2492065429688 374.5777587890625 405.4188842773438 374.9960327148438 C 405.4511413574219 374.7197570800781 405.4717102050781 374.4412231445312 405.4802551269531 374.1644287109375 C 405.4870910644531 373.489013671875 405.6119689941406 372.9930419921875 405.8619079589844 372.6484375 C 406.1506652832031 372.2507934570312 406.5958557128906 372.04931640625 407.185302734375 372.04931640625 L 407.189697265625 372.04931640625 L 407.1940612792969 372.0494079589844 C 407.4650268554688 372.0541381835938 407.736083984375 372.0870971679688 407.9998474121094 372.1473693847656 C 408.3347473144531 372.21630859375 408.6691589355469 372.3042297363281 408.9939575195312 372.4088439941406 C 410.0646667480469 372.761962890625 410.8400268554688 373.0623474121094 411.0967102050781 373.7247924804688 C 411.3529357910156 374.3838806152344 410.9836120605469 375.125244140625 410.4338989257812 376.1005249023438 C 410.2865600585938 376.3619384765625 410.1523132324219 376.6477966308594 410.0224609375 376.9242858886719 L 410.0061950683594 376.9588928222656 C 409.9391174316406 377.1023559570312 409.8729248046875 377.2433776855469 409.8047485351562 377.3832702636719 C 409.552978515625 377.9517822265625 409.2207336425781 378.4795227050781 408.8171997070312 378.951904296875 L 408.8133850097656 378.9563903808594 L 408.8094482421875 378.9607849121094 C 408.3318786621094 379.4938049316406 407.6482849121094 379.8067932128906 406.9333801269531 379.8198852539062 C 406.8880920410156 379.8212890625 406.8421325683594 379.8221130371094 406.7965087890625 379.8221435546875 C 406.77880859375 379.8223571777344 406.7610473632812 379.8224792480469 406.743408203125 379.8224792480469 C 406.0351257324219 379.822509765625 405.3333435058594 379.6407165527344 404.7139587402344 379.2968139648438 L 404.7110290527344 379.2951965332031 L 404.7080993652344 379.2935180664062 C 404.0585021972656 378.9212646484375 403.550048828125 378.3641052246094 403.2377014160156 377.6822814941406 C 402.8004760742188 376.7504272460938 402.5201110839844 375.623779296875 402.382568359375 374.2420654296875 L 402.3815307617188 374.2318115234375 L 402.3809204101562 374.2215270996094 C 402.375 374.1194152832031 402.3701171875 373.9634704589844 402.3639221191406 373.7660522460938 C 402.3443908691406 373.1436157226562 402.3117370605469 372.1018371582031 402.1981201171875 371.1544799804688 C 402.0133056640625 369.6134643554688 401.7380065917969 369.3899230957031 401.7263793945312 369.3811645507812 L 401.7126159667969 369.3718566894531 L 401.7002868652344 369.3621826171875 C 401.568603515625 369.2595825195312 401.4129638671875 369.1953735351562 401.2484130859375 369.1754150390625 C 401.1744384765625 369.1934509277344 401.0934448242188 369.3822326660156 401.0475463867188 369.6473693847656 C 400.9866027832031 370.0565185546875 400.9487609863281 370.4732971191406 400.93505859375 370.8861389160156 L 400.9349060058594 370.8910827636719 L 400.9346313476562 370.8960266113281 L 400.9339294433594 370.9093322753906 C 400.9183044433594 371.2046203613281 400.9021301269531 371.5099487304688 400.8697204589844 371.8150634765625 C 400.7382507324219 373.0473327636719 399.9481506347656 373.8128967285156 398.8077087402344 373.8132934570312 C 398.7516174316406 373.8132934570312 398.6927185058594 373.8113098144531 398.6324768066406 373.8073425292969 L 398.6282043457031 373.8070678710938 L 398.6239624023438 373.8067016601562 C 397.9571533203125 373.7515563964844 397.2845458984375 373.6594543457031 396.6248474121094 373.5329284667969 C 396.1327209472656 373.4474487304688 395.6239318847656 373.3591918945312 395.1252746582031 373.306396484375 C 395.0939025878906 373.3031311035156 395.0615539550781 373.30126953125 395.0297546386719 373.3009643554688 C 395.0061340332031 373.3020629882812 394.9825134277344 373.3034057617188 394.9589233398438 373.3050537109375 L 394.9595336914062 373.3052673339844 L 395.431396484375 373.4837951660156 L 395.2486572265625 373.9540405273438 C 395.124755859375 374.2728576660156 394.9703674316406 374.5814514160156 394.8210754394531 374.8798828125 L 394.8210144042969 374.8800048828125 L 394.8188171386719 374.8844299316406 C 394.5270080566406 375.4671020507812 394.2513427734375 376.0174560546875 394.312255859375 376.4278869628906 C 394.375 376.8496704101562 394.7854614257812 377.3130798339844 395.1833801269531 377.7614135742188 C 395.4234313964844 378.0219116210938 395.6503295898438 378.2986450195312 395.8577575683594 378.5840148925781 L 395.8611145019531 378.5886535644531 L 395.8643798828125 378.5933532714844 C 396.2207946777344 379.1080932617188 396.5490417480469 379.62939453125 396.8965759277344 380.1813049316406 C 397.0666198730469 380.450927734375 399.4946899414062 384.2108154296875 399.5192260742188 384.248779296875 L 400.0267028808594 385.0345764160156 Z" stroke="none" fill="rgba(0,0,0,0.1)"/>
      </g>
      <g id="Group_867" data-name="Group 867" transform="translate(0 10.121)">
        <path id="Path_544" data-name="Path 544" d="M352.52,371h15.6a1.7,1.7,0,0,1,1.7,1.7v15.6a1.7,1.7,0,0,1-1.7,1.7h-15.6a1.7,1.7,0,0,1-1.7-1.7v-15.6A1.7,1.7,0,0,1,352.52,371Z" transform="translate(-350.824 -370.123)" fill="#2794e7"/>
        <g id="S" transform="translate(5.88)">
          <text id="S-2" data-name="S" transform="translate(0 16)" fill="#fff" font-size="15" font-family="SegoeUI-Semibold, Segoe UI" font-weight="600"><tspan x="0" y="0">S</tspan></text>
        </g>
      </g>
    </g>
  </g>
</svg>
